<?xml version="1.0" encoding="UTF-8" standalone="no" ?>
<!DOCTYPE svg PUBLIC "-//W3C//DTD SVG 1.1//EN" "http://www.w3.org/Graphics/SVG/1.1/DTD/svg11.dtd">
<svg xmlns="http://www.w3.org/2000/svg" xmlns:xlink="http://www.w3.org/1999/xlink" version="1.1" width="1080" height="1080" viewBox="0 0 1080 1080" xml:space="preserve">
<desc>Created with Fabric.js 5.2.4</desc>
<defs>
</defs>
<rect x="0" y="0" width="100%" height="100%" fill="transparent"></rect>
<g transform="matrix(1 0 0 1 540 540)" id="c4f0ebbe-fc23-4bb3-82a9-08ecb5a75c35"  >
</g>
<g transform="matrix(1 0 0 1 540 540)" id="4eaebb97-fdd6-45a6-95aa-762507f10662"  >
<rect style="stroke: none; stroke-width: 1; stroke-dasharray: none; stroke-linecap: butt; stroke-dashoffset: 0; stroke-linejoin: miter; stroke-miterlimit: 4; fill: rgb(255,255,255); fill-rule: nonzero; opacity: 1; visibility: hidden;" vector-effect="non-scaling-stroke"  x="-540" y="-540" rx="0" ry="0" width="1080" height="1080" />
</g>
<g transform="matrix(14.4 0 0 14.4 542 538)"  >
<path style="stroke: rgb(0,0,0); stroke-width: 7; stroke-dasharray: none; stroke-linecap: butt; stroke-dashoffset: 0; stroke-linejoin: miter; stroke-miterlimit: 4; fill: rgb(255,255,255); fill-rule: nonzero; opacity: 1;" vector-effect="non-scaling-stroke"  transform=" translate(-50, -50)" d="M 19.11 13.441 L 66.53 13.441 L 66.53 28.966 L 80.888 28.966 L 80.888 86.559 L 19.11 86.559 L 19.11 13.441 z M 69.711 13.494 L 80.254 26 L 69.711 26 L 69.711 13.494 z" stroke-linecap="round" />
</g>
<g transform="matrix(2.43 0 0 2.43 548.54 599.79)" style="" id="9b31fa48-188a-4900-8c8f-e299e2d1b5b0"  >
		<text xml:space="preserve" font-family="Raleway" font-size="187" font-style="normal" font-weight="700" style="stroke: none; stroke-width: 1; stroke-dasharray: none; stroke-linecap: butt; stroke-dashoffset: 0; stroke-linejoin: miter; stroke-miterlimit: 4; fill: rgb(29,255,35); fill-rule: nonzero; opacity: 1; white-space: pre;" ><tspan x="-159.28" y="32.98" style="stroke-width: 1; font-family: 'Raleway'; font-size: 105px; font-style: normal; font-weight: 900; fill: rgb(0,0,0); ">HLTR?</tspan></text>
</g>
</svg>